<?xml version="1.0" standalone="no"?><svg xmlns="http://www.w3.org/2000/svg" viewBox="0 0 1440 320"><path fill="#ffe1ed" fill-opacity="1" d="M0,160L24,186.7C48,213,96,267,144,272C192,277,240,235,288,213.3C336,192,384,192,432,202.7C480,213,528,235,576,240C624,245,672,235,720,245.3C768,256,816,288,864,277.3C912,267,960,213,1008,202.7C1056,192,1104,224,1152,245.3C1200,267,1248,277,1296,282.7C1344,288,1392,288,1416,288L1440,288L1440,320L1416,320C1392,320,1344,320,1296,320C1248,320,1200,320,1152,320C1104,320,1056,320,1008,320C960,320,912,320,864,320C816,320,768,320,720,320C672,320,624,320,576,320C528,320,480,320,432,320C384,320,336,320,288,320C240,320,192,320,144,320C96,320,48,320,24,320L0,320Z"></path></svg>