<?xml version="1.0" standalone="no"?><svg xmlns="http://www.w3.org/2000/svg" viewBox="0 0 1440 320"><path fill="#ffe1ed" fill-opacity="1" d="M0,288L21.8,256C43.6,224,87,160,131,149.3C174.5,139,218,181,262,208C305.5,235,349,245,393,256C436.4,267,480,277,524,272C567.3,267,611,245,655,218.7C698.2,192,742,160,785,170.7C829.1,181,873,235,916,229.3C960,224,1004,160,1047,138.7C1090.9,117,1135,139,1178,170.7C1221.8,203,1265,245,1309,266.7C1352.7,288,1396,288,1418,288L1440,288L1440,0L1418.2,0C1396.4,0,1353,0,1309,0C1265.5,0,1222,0,1178,0C1134.5,0,1091,0,1047,0C1003.6,0,960,0,916,0C872.7,0,829,0,785,0C741.8,0,698,0,655,0C610.9,0,567,0,524,0C480,0,436,0,393,0C349.1,0,305,0,262,0C218.2,0,175,0,131,0C87.3,0,44,0,22,0L0,0Z"></path></svg>